<svg id="グループ_225" data-name="グループ 225" xmlns="http://www.w3.org/2000/svg" width="210.629" height="192.72" viewBox="0 0 210.629 192.72">
  <path id="パス_1588" data-name="パス 1588" d="M38.5,39.723H32.353L23.532,22.082,15.513,31.7v8.019H9.9V2.3h5.613V23.151L31.284,2.3H38.5L27.542,16.469Zm51.588,0H83.406L74.051,22.082,65.5,31.7v8.019H59.617V2.3H65.5V23.151L82.337,2.3h8.019L78.595,16.469Zm-39.025,0H44.916V1.5h6.148Zm74.575,0h-6.415V21.013l-17.909,5.613v13.1H94.9V2.569h6.415V20.478l17.909-6.415V2.569h6.415Z" transform="translate(16.562 2.777)" fill="#fff"/>
  <g id="グループ_211" data-name="グループ 211" transform="translate(0 0)">
    <path id="パス_1589" data-name="パス 1589" d="M19.78,0H144.607V6.95H19.78ZM0,40.9H185.77v6.95H0Z" transform="translate(0 0.267)" fill="#fff"/>
    <path id="パス_1590" data-name="パス 1590" d="M140.6,1.5c6.682,31.274,22.186,44.1,22.72,44.371l4.277-5.346S153.16,28.5,147.28-.1ZM0,42.667l4.811,4.811C5.346,46.944,19.78,32.51,25.66,2.038L18.978.7C13.632,29.035.267,42.667,0,42.667Z" transform="translate(0 0.1)" fill="#fff"/>
  </g>
  <g id="グループ_212" data-name="グループ 212" transform="translate(13.632 64.953)">
    <path id="パス_1591" data-name="パス 1591" d="M24.88,50.128H18.2L13.386,39.436l-1.6,2.406v8.286H5.9V24.2h5.881V35.694a26.045,26.045,0,0,0,1.336-2.94l4.544-8.286h6.95L17.4,35.694ZM41.452,24.2h5.881V50.128H41.452Zm42.5,25.928H77.27L72.458,39.436l-1.6,2.406v8.286H64.974V24.2h5.881V35.694a29.152,29.152,0,0,1,1.6-2.94L77,24.467h6.95L76.735,35.694Zm36.085,0h-5.88V39.436H106.94V50.128h-5.881V24.2h5.881V34.357h7.217v-9.89h5.88ZM18.2,83.272a6.272,6.272,0,0,1,4.811,6.148A6.729,6.729,0,0,1,20.6,94.766c-1.871,1.6-4.811,2.406-9.623,2.406-2.406,0-4.544-.267-5.881-.267V71.511a45.946,45.946,0,0,1,6.95-.535c2.94,0,5.346.267,7.217,1.6a6.083,6.083,0,0,1,2.673,5.079C22.207,79.8,20.87,81.936,18.2,83.272ZM12.317,81.4c2.406,0,4.009-1.336,4.009-3.208,0-2.138-1.336-2.94-3.475-2.94-.8,0-2.94,0-3.208.267v6.148h2.673ZM9.644,92.895h2.94c2.138,0,4.277-1.069,4.277-3.475,0-2.673-2.138-3.475-4.277-3.475H9.644Zm43.3-9.355H51.609a3.451,3.451,0,0,0-3.475,2.406,3.963,3.963,0,0,0-.267,1.871v9.355H41.987V78.194h5.079l.267,3.208c1.069-2.406,2.94-3.475,4.544-3.475h1.336V83.54Zm20.849-7.484a2.94,2.94,0,1,1,2.94-2.94A2.8,2.8,0,0,1,73.795,76.055Zm2.94,21.116h-5.88V78.194h5.88Zm67.358-18.978c0,1.336-.267,3.208-.267,5.881V94.766c0,4.811-1.069,10.424-9.89,10.424a13.6,13.6,0,0,1-5.881-1.069l1.069-4.544a11.374,11.374,0,0,0,4.544,1.069c2.673,0,4.277-1.6,4.277-4.544V95.033a5.194,5.194,0,0,1-4.277,2.138c-4.544,0-7.217-4.277-7.217-9.088,0-6.148,3.475-9.89,7.752-9.89A4.283,4.283,0,0,1,138.48,80.6l.267-2.138h5.346Zm-5.88,8.553a3.967,3.967,0,0,0-3.742-4.277c-2.94,0-4.277,2.138-4.277,5.079a4.346,4.346,0,0,0,4.544,4.544c1.069,0,3.742-1.069,3.475-4.544ZM6.436,118.288a43.081,43.081,0,0,1,6.95-.535c3.475,0,5.88.535,7.752,2.138a7.659,7.659,0,0,1,2.673,5.88c0,7.217-5.88,8.821-9.89,8.821H12.584v9.355H6.436Zm5.881,11.761h1.336c2.673,0,5.079-1.336,5.079-3.742s-2.406-4.009-4.811-4.009a3.963,3.963,0,0,0-1.871.267v7.484Zm40.094.535c-.535,0-.8-.267-1.336-.267a3.451,3.451,0,0,0-3.475,2.406,3.963,3.963,0,0,0-.267,1.871v9.355H41.452v-12.83a43.365,43.365,0,0,0-.267-6.148h5.079l.267,3.208a4.955,4.955,0,0,1,4.544-3.475h1.336Zm32.61,3.742c0,7.217-4.811,9.89-8.821,9.89-5.346,0-8.821-3.742-8.821-9.623,0-6.415,3.742-9.89,9.088-9.89S85.021,128.713,85.021,134.326ZM76.2,130.049c-2.673,0-4.009,2.406-4.009,4.544,0,2.673,1.336,4.544,4.009,4.544S80.21,137,80.21,134.593,79.141,130.049,76.2,130.049Zm34.748,12.028c0,4.009-.535,9.89-9.355,9.89l-.535-4.544c3.742-.535,4.009-1.6,4.009-6.682V124.97h5.88Zm-2.94-19.245a2.94,2.94,0,1,1,2.94-2.94A2.8,2.8,0,0,1,108.009,122.832Zm67.626,20.849a13.409,13.409,0,0,1-4.277.8c-5.613,0-9.355-3.475-9.355-9.623,0-5.613,3.742-9.89,9.89-9.89a12.391,12.391,0,0,1,3.742.535l-.8,4.544a5.75,5.75,0,0,0-2.673-.535c-2.673,0-4.277,2.138-4.277,5.079,0,3.208,1.871,5.079,4.277,5.079a7.906,7.906,0,0,0,2.673-.535ZM192.207,121.5l5.881-1.6v5.079H202.1v4.277h-4.009v7.217c0,2.138.8,2.94,2.138,2.94a3.389,3.389,0,0,0,1.6-.267v4.544a12.39,12.39,0,0,1-3.742.535c-5.881,0-5.881-5.079-5.881-7.217v-7.752H189.8V124.97h2.406ZM174.031,87.549c0-6.415-3.208-9.355-7.752-9.355-5.613,0-8.821,4.811-8.821,10.157,0,5.88,3.475,9.355,9.355,9.355a14.856,14.856,0,0,0,6.148-1.069l-.8-4.009a12.486,12.486,0,0,1-4.544.8c-2.406,0-4.544-1.069-4.544-3.208h10.692A9.094,9.094,0,0,0,174.031,87.549Zm-10.692-1.337c.267-1.871.267-4.811,3.475-4.811,2.138,0,2.673,2.94,2.673,4.811Zm-52.657,5.079V69.907H104.8V79.8c-.535-1.069-2.138-1.871-4.009-1.871-4.009,0-7.484,3.475-7.484,9.89,0,5.613,2.94,9.623,7.217,9.623a6.083,6.083,0,0,0,5.079-2.673l.267,2.406h5.079A39.534,39.534,0,0,1,110.682,91.291Zm-6.415-2.673c0,2.406-1.336,4.277-2.94,4.277-2.673,0-3.742-2.406-3.742-5.346,0-3.208.8-5.346,3.475-5.346,1.6,0,3.208,1.6,3.208,4.277Zm40.9,45.44c0-6.415-3.208-9.355-7.752-9.355-5.613,0-8.821,4.811-8.821,10.157,0,5.881,3.475,9.355,9.355,9.355a14.856,14.856,0,0,0,6.148-1.069l-.8-4.009a12.484,12.484,0,0,1-4.544.8c-2.406,0-4.544-1.069-4.544-3.208H144.9A9.092,9.092,0,0,0,145.163,134.058ZM134.2,132.722c.267-1.871.267-4.811,3.475-4.811,2.138,0,2.673,2.94,2.673,4.811Z" transform="translate(-5.1 -24.2)" fill="#fff"/>
  </g>
</svg>
